<svg width="1787" height="717" viewBox="200 125 1787 717" fill="none" xmlns="http://www.w3.org/2000/svg"><g opacity="1"><g filter="url(#filter0_f_650_14488)"><path d="M707.894 447.056L708.087 447.871L708.321 448.877C815.79 359.689 899.74 309.783 984.02 307.101C1068.29 304.42 1152.95 348.956 1261.83 448.861L1262.08 449.054L1262.28 448.883C1321.89 398.456 1368.35 371.974 1414.77 371.315C1458.25 370.697 1501.76 392.728 1556.07 439.119C1559.6 442.328 1563.15 445.575 1566.72 448.86L1567.14 449.281L1567.7 447.073C1563.92 443.708 1560.19 440.455 1556.51 437.313C1395.55 291.08 1268.19 222.384 1140.01 224.694C1009.02 227.054 877.223 303.57 707.894 447.056Z" fill="url(#paint0_linear_650_14488)" fill-opacity="0.25"></path></g><g filter="url(#filter1_f_650_14488)"><path d="M1613.37 481.554L1613.75 489.365L1612.67 484.572C1435.48 336.784 1284.74 306.27 1145.78 301.827C1006.84 297.384 859.811 406.506 688.45 543.188L688.048 543.507L687.716 543.223C589.432 459.665 512.839 415.784 436.293 414.692C364.606 413.668 282.216 440.83 192.673 517.701C186.848 523.02 180.997 528.4 175.118 533.842L174.42 534.541L173.5 530.881C179.731 525.306 185.876 519.916 191.94 514.71C462.438 282.481 679.396 169.126 890.733 172.954C1106.71 176.865 1334.19 243.792 1613.37 481.554Z" fill="url(#paint1_linear_650_14488)" fill-opacity="0.5"></path></g></g><defs><filter id="filter0_f_650_14488" x="535.095" y="51.8372" width="1205.4" height="570.244" filterUnits="userSpaceOnUse" color-interpolation-filters="sRGB"><feFlood flood-opacity="0" result="BackgroundImageFix"></feFlood><feBlend mode="normal" in="SourceGraphic" in2="BackgroundImageFix" result="shape"></feBlend><feGaussianBlur stdDeviation="86.4" result="effect1_foregroundBlur_650_14488"></feGaussianBlur></filter><filter id="filter1_f_650_14488" x="0.700012" y="0.0598755" width="1785.85" height="716.247" filterUnits="userSpaceOnUse" color-interpolation-filters="sRGB"><feFlood flood-opacity="0" result="BackgroundImageFix"></feFlood><feBlend mode="normal" in="SourceGraphic" in2="BackgroundImageFix" result="shape"></feBlend><feGaussianBlur stdDeviation="86.4" result="effect1_foregroundBlur_650_14488"></feGaussianBlur></filter><linearGradient id="paint0_linear_650_14488" x1="1105.44" y1="336.959" x2="1273.57" y2="147.603" gradientUnits="userSpaceOnUse"><stop offset="0.106998" stop-color="#17BEBB"></stop><stop offset="0.523673" stop-color="#24A9CD"></stop><stop offset="0.804928" stop-color="#3096DE"></stop><stop offset="1" stop-color="#4378F8"></stop></linearGradient><linearGradient id="paint1_linear_650_14488" x1="671.341" y1="14.3685" x2="1235.44" y2="419.397" gradientUnits="userSpaceOnUse"><stop stop-color="#F37820"></stop><stop offset="0.461172" stop-color="#4378F8"></stop><stop offset="1" stop-color="#17BEBB"></stop></linearGradient></defs></svg>